<?xml version="1.0" encoding="UTF-8"?>
<svg xmlns="http://www.w3.org/2000/svg" xmlns:xlink="http://www.w3.org/1999/xlink" width="16px" height="16px" viewBox="0 0 16 15" version="1.1">
<g id="surface1">
<path style=" stroke:none;fill-rule:nonzero;fill:rgb(0%,0%,0%);fill-opacity:1;" d="M 6.789062 1.777344 C 5.980469 2.238281 6.007812 3.449219 6.84375 3.972656 C 7.34375 4.292969 7.746094 4.246094 8.179688 3.828125 C 8.515625 3.511719 8.542969 3.449219 8.542969 2.976562 C 8.542969 2.363281 8.308594 1.953125 7.851562 1.742188 C 7.425781 1.554688 7.15625 1.5625 6.789062 1.777344 Z M 7.859375 2.433594 C 8.074219 2.613281 8.121094 2.71875 8.121094 3.066406 C 8.121094 3.394531 8.074219 3.519531 7.898438 3.652344 C 7.773438 3.742188 7.605469 3.820312 7.519531 3.8125 C 7.417969 3.8125 7.425781 3.785156 7.578125 3.730469 C 7.832031 3.632812 7.980469 3.375 7.980469 3.03125 C 7.980469 2.445312 7.238281 2.175781 6.863281 2.628906 C 6.75 2.761719 6.667969 2.835938 6.667969 2.789062 C 6.675781 2.566406 7.144531 2.230469 7.4375 2.222656 C 7.519531 2.222656 7.71875 2.320312 7.859375 2.433594 Z M 7.859375 2.433594 "/>
<path style=" stroke:none;fill-rule:nonzero;fill:rgb(0%,0%,0%);fill-opacity:1;" d="M 5.785156 2.773438 C 5.679688 2.886719 5.25 3.332031 4.816406 3.757812 C 4.394531 4.183594 4.039062 4.585938 4.039062 4.628906 C 4.039062 4.683594 4.074219 4.699219 4.121094 4.675781 C 4.292969 4.578125 4.796875 4.824219 4.9375 5.074219 C 5.015625 5.214844 5.136719 5.332031 5.203125 5.332031 C 5.371094 5.332031 5.980469 4.933594 6.402344 4.550781 L 6.761719 4.230469 L 6.535156 4.007812 C 6.226562 3.6875 6.09375 3.421875 6.019531 2.960938 L 5.960938 2.566406 Z M 5.785156 2.773438 "/>
<path style=" stroke:none;fill-rule:nonzero;fill:rgb(0%,0%,0%);fill-opacity:1;" d="M 8.730469 3.117188 C 8.730469 3.234375 8.675781 3.4375 8.601562 3.5625 C 8.480469 3.785156 8.507812 3.847656 9.050781 4.683594 C 9.363281 5.171875 9.71875 5.6875 9.820312 5.828125 L 10.027344 6.078125 L 10.320312 5.785156 L 10.609375 5.492188 L 9.699219 4.230469 C 9.203125 3.546875 8.78125 2.960938 8.761719 2.941406 C 8.75 2.921875 8.730469 3.003906 8.730469 3.117188 Z M 8.730469 3.117188 "/>
<path style=" stroke:none;fill-rule:nonzero;fill:rgb(0%,0%,0%);fill-opacity:1;" d="M 7.90625 4.371094 C 7.707031 4.558594 7.785156 4.796875 8.226562 5.546875 C 8.929688 6.710938 9.0625 6.84375 9.484375 6.84375 C 9.820312 6.84375 9.851562 6.824219 9.878906 6.550781 C 9.898438 6.328125 9.792969 6.085938 9.371094 5.464844 C 8.582031 4.28125 8.5625 4.265625 8.28125 4.265625 C 8.132812 4.265625 7.972656 4.308594 7.90625 4.371094 Z M 7.90625 4.371094 "/>
<path style=" stroke:none;fill-rule:nonzero;fill:rgb(0%,0%,0%);fill-opacity:1;" d="M 3.867188 4.992188 C 3.578125 5.269531 3.90625 5.863281 4.355469 5.863281 C 4.589844 5.863281 4.882812 5.582031 4.882812 5.359375 C 4.882812 5.003906 4.140625 4.738281 3.867188 4.992188 Z M 3.867188 4.992188 "/>
<path style=" stroke:none;fill-rule:nonzero;fill:rgb(0%,0%,0%);fill-opacity:1;" d="M 10.460938 5.890625 C 10.1875 6.121094 10.113281 6.265625 10.074219 6.59375 C 9.972656 7.410156 10.394531 7.996094 11.097656 7.996094 C 11.859375 7.996094 12.394531 7.492188 12.394531 6.753906 C 12.394531 6.050781 11.933594 5.605469 11.191406 5.597656 C 10.875 5.597656 10.730469 5.652344 10.460938 5.890625 Z M 11.566406 6.28125 C 11.652344 6.371094 11.746094 6.539062 11.773438 6.664062 C 11.839844 6.878906 11.832031 6.878906 11.691406 6.648438 C 11.550781 6.40625 11.285156 6.21875 11.089844 6.21875 C 10.863281 6.21875 10.609375 6.585938 10.609375 6.886719 C 10.609375 7.082031 10.683594 7.269531 10.796875 7.375 C 10.902344 7.472656 10.949219 7.554688 10.910156 7.554688 C 10.769531 7.554688 10.535156 7.25 10.46875 7.011719 C 10.402344 6.753906 10.609375 6.273438 10.816406 6.195312 C 11.078125 6.097656 11.4375 6.140625 11.566406 6.28125 Z M 11.566406 6.28125 "/>
<path style=" stroke:none;fill-rule:nonzero;fill:rgb(0%,0%,0%);fill-opacity:1;" d="M 4.695312 5.953125 C 4.621094 6 4.421875 6.042969 4.261719 6.042969 C 4.085938 6.042969 3.945312 6.097656 3.90625 6.175781 C 3.878906 6.246094 3.792969 6.308594 3.707031 6.308594 C 3.53125 6.308594 3.519531 6.78125 3.699219 6.921875 C 3.792969 7.003906 3.886719 7.003906 4.074219 6.921875 C 4.261719 6.84375 4.402344 6.832031 4.65625 6.914062 C 4.84375 6.96875 5.050781 6.984375 5.125 6.957031 C 5.316406 6.894531 5.296875 6.316406 5.109375 6.246094 C 5.023438 6.21875 4.929688 6.121094 4.902344 6.035156 C 4.855469 5.917969 4.796875 5.890625 4.695312 5.953125 Z M 4.695312 5.953125 "/>
<path style=" stroke:none;fill-rule:nonzero;fill:rgb(0%,0%,0%);fill-opacity:1;" d="M 3.257812 6.992188 C 3.21875 7.019531 3.191406 7.164062 3.191406 7.304688 C 3.191406 7.480469 3.238281 7.554688 3.363281 7.554688 C 3.503906 7.554688 3.53125 7.605469 3.492188 7.828125 C 3.457031 8.078125 3.472656 8.09375 3.671875 8.070312 C 3.839844 8.050781 3.90625 7.980469 3.925781 7.792969 C 3.972656 7.394531 3.886719 7.261719 3.652344 7.375 C 3.484375 7.464844 3.472656 7.457031 3.550781 7.3125 C 3.699219 7.046875 3.464844 6.789062 3.257812 6.992188 Z M 3.257812 6.992188 "/>
<path style=" stroke:none;fill-rule:nonzero;fill:rgb(0%,0%,0%);fill-opacity:1;" d="M 5.210938 7.109375 C 5.109375 7.261719 5.257812 7.554688 5.445312 7.554688 C 5.652344 7.554688 5.726562 7.382812 5.613281 7.171875 C 5.519531 7.003906 5.304688 6.96875 5.210938 7.109375 Z M 5.210938 7.109375 "/>
<path style=" stroke:none;fill-rule:nonzero;fill:rgb(0%,0%,0%);fill-opacity:1;" d="M 4.714844 7.402344 C 4.589844 7.535156 4.703125 8.105469 4.863281 8.15625 C 5.050781 8.210938 5.210938 7.765625 5.089844 7.507812 C 4.96875 7.261719 4.863281 7.234375 4.714844 7.402344 Z M 4.714844 7.402344 "/>
<path style=" stroke:none;fill-rule:nonzero;fill:rgb(0%,0%,0%);fill-opacity:1;" d="M 9.578125 8.105469 C 9.585938 9.160156 9.691406 9.640625 9.953125 9.917969 C 10.148438 10.105469 10.253906 10.128906 10.890625 10.128906 C 11.53125 10.128906 11.632812 10.105469 11.820312 9.917969 C 12.074219 9.660156 12.167969 9.117188 12.074219 8.414062 L 12.007812 7.925781 L 11.757812 8.050781 C 11.125 8.363281 10.292969 8.113281 10.046875 7.554688 C 9.972656 7.394531 9.859375 7.285156 9.757812 7.285156 C 9.597656 7.285156 9.578125 7.367188 9.578125 8.105469 Z M 9.578125 8.105469 "/>
<path style=" stroke:none;fill-rule:nonzero;fill:rgb(0%,0%,0%);fill-opacity:1;" d="M 4.101562 7.703125 C 4.085938 7.75 4.066406 7.917969 4.046875 8.09375 C 4.027344 8.496094 4.226562 8.691406 4.449219 8.488281 C 4.621094 8.316406 4.636719 8.183594 4.507812 7.875 C 4.421875 7.660156 4.1875 7.5625 4.101562 7.703125 Z M 4.101562 7.703125 "/>
<path style=" stroke:none;fill-rule:nonzero;fill:rgb(0%,0%,0%);fill-opacity:1;" d="M 3.144531 9.074219 C 3.109375 9.125 3.097656 9.171875 3.109375 9.179688 C 3.25 9.25 7.417969 9.125 7.417969 9.0625 C 7.417969 8.941406 3.21875 8.949219 3.144531 9.074219 Z M 3.144531 9.074219 "/>
<path style=" stroke:none;fill-rule:nonzero;fill:rgb(0%,0%,0%);fill-opacity:1;" d="M 3.191406 9.464844 C 3.125 9.535156 2.996094 10.105469 2.902344 10.734375 C 2.808594 11.355469 2.714844 11.96875 2.683594 12.101562 L 2.636719 12.351562 L 7.679688 12.351562 L 7.972656 10.894531 C 8.132812 10.105469 8.261719 9.417969 8.261719 9.382812 C 8.261719 9.355469 7.144531 9.332031 5.785156 9.332031 C 3.699219 9.332031 3.296875 9.347656 3.191406 9.464844 Z M 3.191406 9.464844 "/>
<path style=" stroke:none;fill-rule:nonzero;fill:rgb(0%,0%,0%);fill-opacity:1;" d="M 9.625 10.484375 C 9.503906 10.859375 9.707031 10.929688 10.882812 10.929688 C 11.484375 10.929688 12.027344 10.894531 12.09375 10.851562 C 12.167969 10.816406 12.207031 10.679688 12.1875 10.566406 C 12.160156 10.351562 12.148438 10.351562 10.921875 10.324219 C 9.738281 10.308594 9.679688 10.308594 9.625 10.484375 Z M 9.625 10.484375 "/>
<path style=" stroke:none;fill-rule:nonzero;fill:rgb(0%,0%,0%);fill-opacity:1;" d="M 9.613281 11.242188 C 9.585938 11.3125 9.585938 11.4375 9.613281 11.507812 C 9.660156 11.625 9.867188 11.640625 10.910156 11.625 L 12.160156 11.597656 L 12.160156 11.152344 L 10.910156 11.125 C 9.867188 11.109375 9.660156 11.125 9.613281 11.242188 Z M 9.613281 11.242188 "/>
<path style=" stroke:none;fill-rule:nonzero;fill:rgb(0%,0%,0%);fill-opacity:1;" d="M 9.089844 11.96875 C 8.929688 12.148438 8.449219 12.859375 8.449219 12.921875 C 8.449219 12.949219 9.511719 12.964844 10.796875 12.972656 C 12.09375 12.972656 13.144531 12.957031 13.144531 12.921875 C 13.144531 12.894531 12.996094 12.628906 12.808594 12.34375 L 12.480469 11.820312 L 10.855469 11.820312 C 9.425781 11.820312 9.210938 11.835938 9.089844 11.96875 Z M 9.089844 11.96875 "/>
</g>
</svg>
